<svg xmlns="http://www.w3.org/2000/svg" xmlns:xlink="http://www.w3.org/1999/xlink" width="114" height="117" viewBox="0 0 114 117"><defs><style>.a{fill:#5752bb;}.b{fill:#ea6227;opacity:0.8;}.c{fill:#fff;}.d{filter:url(#a);}</style><filter id="a" x="0" y="46" width="114" height="71" filterUnits="userSpaceOnUse"><feOffset dy="5" input="SourceAlpha"/><feGaussianBlur stdDeviation="4" result="b"/><feFlood flood-opacity="0.161"/><feComposite operator="in" in2="b"/><feComposite in="SourceGraphic"/></filter></defs><g transform="translate(-972 -1436)"><g transform="translate(983.627 1436)"><g class="d" transform="matrix(1, 0, 0, 1, -11.63, 0)"><path class="a" d="M45,47a43.1,43.1,0,0,1-17.516-3.694,44.761,44.761,0,0,1-14.3-10.073A47.021,47.021,0,0,1,3.536,18.3,48.521,48.521,0,0,1,0,0H90a48.511,48.511,0,0,1-3.536,18.3,47,47,0,0,1-9.644,14.938,44.758,44.758,0,0,1-14.3,10.073A43.1,43.1,0,0,1,45,47Z" transform="translate(12 53)"/></g><path class="b" d="M45.5,0,91,47H0Z" transform="translate(0.373)"/></g><path class="c" d="M.861-.483V-3.3a5.4,5.4,0,0,0,1.661.962,5.34,5.34,0,0,0,1.811.321,4.015,4.015,0,0,0,.936-.1,2.193,2.193,0,0,0,.668-.268,1.169,1.169,0,0,0,.4-.4,1.009,1.009,0,0,0,.132-.505,1.092,1.092,0,0,0-.211-.659,2.27,2.27,0,0,0-.576-.536,6.015,6.015,0,0,0-.866-.475q-.5-.229-1.081-.466a5.517,5.517,0,0,1-2.2-1.5A3.281,3.281,0,0,1,.809-9.07a3.416,3.416,0,0,1,.4-1.692,3.359,3.359,0,0,1,1.077-1.165A4.828,4.828,0,0,1,3.858-12.6a8.106,8.106,0,0,1,1.9-.215A11.418,11.418,0,0,1,7.5-12.7a6.861,6.861,0,0,1,1.4.365V-9.7a4.239,4.239,0,0,0-.69-.387,5.466,5.466,0,0,0-.769-.277,5.866,5.866,0,0,0-.787-.163,5.567,5.567,0,0,0-.743-.053,3.873,3.873,0,0,0-.879.092,2.254,2.254,0,0,0-.668.259,1.29,1.29,0,0,0-.422.4.948.948,0,0,0-.149.523,1,1,0,0,0,.167.567,1.916,1.916,0,0,0,.475.475,5.037,5.037,0,0,0,.747.439q.439.215.993.444a11.067,11.067,0,0,1,1.358.672,4.827,4.827,0,0,1,1.033.8,3.133,3.133,0,0,1,.659,1.024,3.618,3.618,0,0,1,.229,1.34,3.59,3.59,0,0,1-.4,1.771A3.247,3.247,0,0,1,7.972-.611a4.707,4.707,0,0,1-1.6.637A9.219,9.219,0,0,1,4.456.22,10.678,10.678,0,0,1,2.483.044,5.956,5.956,0,0,1,.861-.483ZM21.626-5.458Q21.626.22,16.335.22,11.2.22,11.2-5.326V-12.6h2.848v7.313q0,3.059,2.391,3.059,2.347,0,2.347-2.953V-12.6h2.839ZM24.188,0V-12.6h4.588a5.729,5.729,0,0,1,3.243.773,2.488,2.488,0,0,1,1.134,2.18,2.58,2.58,0,0,1-.69,1.784A3.625,3.625,0,0,1,30.7-6.8v.035a3.493,3.493,0,0,1,2.149.993,2.778,2.778,0,0,1,.8,2.013,3.364,3.364,0,0,1-1.239,2.747A5.186,5.186,0,0,1,29.031,0Zm2.839-10.512v2.988h1.248a2.08,2.08,0,0,0,1.384-.426,1.453,1.453,0,0,0,.505-1.173q0-1.389-2.074-1.389Zm0,5.1v3.322h1.538a2.367,2.367,0,0,0,1.542-.457A1.527,1.527,0,0,0,30.665-3.8a1.425,1.425,0,0,0-.549-1.187,2.43,2.43,0,0,0-1.534-.431ZM38.387,0H35.548V-12.6h2.839ZM51.645,0H48.384l-1.96-3.243Q46.2-3.612,46-3.9a3.662,3.662,0,0,0-.409-.5,1.625,1.625,0,0,0-.431-.316,1.093,1.093,0,0,0-.488-.11h-.765V0H41.072V-12.6h4.5q4.588,0,4.588,3.428a3.55,3.55,0,0,1-.2,1.217,3.382,3.382,0,0,1-.571,1.006,3.621,3.621,0,0,1-.892.773,4.6,4.6,0,0,1-1.165.51v.035a1.806,1.806,0,0,1,.545.286,3.9,3.9,0,0,1,.51.461,6.438,6.438,0,0,1,.47.567q.224.3.409.593ZM43.911-10.477V-6.97h1.23A2.04,2.04,0,0,0,46.609-7.5a1.76,1.76,0,0,0,.563-1.327q0-1.652-1.978-1.652Z" transform="translate(1004 1512)"/></g></svg>